<?xml version="1.0" encoding="UTF-8" standalone="no"?>
<!-- Generator: Adobe Illustrator 19.0.0, SVG Export Plug-In . SVG Version: 6.00 Build 0)  -->

<svg
   xmlns:dc="http://purl.org/dc/elements/1.1/"
   xmlns:cc="http://creativecommons.org/ns#"
   xmlns:rdf="http://www.w3.org/1999/02/22-rdf-syntax-ns#"
   xmlns:svg="http://www.w3.org/2000/svg"
   xmlns="http://www.w3.org/2000/svg"
   xmlns:sodipodi="http://sodipodi.sourceforge.net/DTD/sodipodi-0.dtd"
   xmlns:inkscape="http://www.inkscape.org/namespaces/inkscape"
   version="1.1"
   id="Capa_1"
   x="0px"
   y="0px"
   viewBox="0 0 491.65641 542.96776"
   xml:space="preserve"
   sodipodi:docname="radai-machine-vs-man.svg"
   width="130.08409mm"
   height="143.66022mm"
   inkscape:version="0.92.1 r15371"
   inkscape:export-filename="/home/palash/Downloads/radai-machine-vs-man.svg.png"
   inkscape:export-xdpi="116.692"
   inkscape:export-ydpi="116.692"><title
     id="title5624">Machines vs Humans</title><metadata
     id="metadata77"><rdf:RDF><cc:Work
         rdf:about=""><dc:format>image/svg+xml</dc:format><dc:type
           rdf:resource="http://purl.org/dc/dcmitype/StillImage" /><dc:title>Machines vs Humans</dc:title><cc:license
           rdf:resource="" /><dc:creator><cc:Agent><dc:title>Palash Bauri</dc:title></cc:Agent></dc:creator></cc:Work></rdf:RDF></metadata><defs
     id="defs75" /><sodipodi:namedview
     pagecolor="#ffffff"
     bordercolor="#666666"
     borderopacity="1"
     objecttolerance="10"
     gridtolerance="10"
     guidetolerance="10"
     inkscape:pageopacity="0"
     inkscape:pageshadow="2"
     inkscape:window-width="1366"
     inkscape:window-height="708"
     id="namedview73"
     showgrid="false"
     units="mm"
     showguides="false"
     inkscape:pagecheckerboard="false"
     inkscape:zoom="1"
     inkscape:cx="192.48518"
     inkscape:cy="309.17723"
     inkscape:window-x="0"
     inkscape:window-y="34"
     inkscape:window-maximized="1"
     inkscape:current-layer="Capa_1"
     fit-margin-top="5"
     fit-margin-left="5"
     fit-margin-right="5"
     fit-margin-bottom="5" /><path
     inkscape:label="#path50"
     sodipodi:nodetypes="cscssscssscsccccccssssssscccccccccccccc"
     inkscape:connector-curvature="0"
     id="path4582"
     d="m 458.08365,363.4971 c -4.753,-0.129 -9.35501,1.677 -12.75101,5.006 -3.396,3.329 -6.293,5.894 -6.258,10.649 0,6.62076 -0.39775,11.12228 -1.27574,14.1504 -0.878,3.02812 -2.23624,4.58282 -4.15724,5.30993 -1.92099,0.72711 -4.40474,0.62663 -7.53374,0.34437 -3.12899,-0.28226 -10.40324,-1.7463 -14.90524,-1.7463 0,0 1.58575,1.14079 3.82368,2.98852 2.23794,1.84773 5.12806,4.4024 7.7368,7.23017 2.60875,2.82776 4.93612,5.92862 6.04855,8.86872 1.11243,2.94011 1.00993,5.71946 -1.24107,7.90421 -9.00399,8.828 -14.50799,1 -14.50799,18.655 0,17.655 -0.996,26.31 -28.008,35.138 -15.625,5.119 -48.52701,7.41 -87.01501,-6.096 l -0.353,0.971 c -10.109,15.291 -16.127,32.92 -17.478,51.2 h -35.311 l 0.125,-502.172023 c 2.73589,-0.60602 5.63984,-0.89092 8.68003,-0.89249 3.0402,-0.002 6.21664,0.2802 9.49752,0.80753 3.28089,0.52734 6.66621,1.30024 10.12418,2.28093 3.45797,0.98069 6.98857,2.16917 10.56001,3.52767 3.57144,1.3585 7.18372,2.88701 10.80502,4.54778 3.6213,1.66076 7.25164,3.45376 10.8592,5.34124 3.60755,1.88748 7.19234,3.86943 10.72254,5.90808 3.53021,2.03865 7.00583,4.13399 10.39508,6.24827 3.38924,2.11427 6.6921,4.24746 9.87677,6.36181 3.18467,2.11435 6.25115,4.20985 9.16764,6.24873 2.91649,2.03888 5.68299,4.02114 8.26769,5.909 2.5847,1.88787 4.98761,3.68133 7.17691,5.34263 2.1893,1.66131 4.16501,3.19044 5.8953,4.54963 1.7303,1.35919 3.09019,1.54844 4.29786,2.52998 1.20768,0.98154 2.13815,1.75536 2.75961,2.28369 0.62145,0.52834 0.93389,0.81118 0.90551,0.81077 -1.324,-0.088 42.64014,16.907753 41.22714,16.731753 v 0.177 c 19.78105,31.40328 33.69765,71.72352 30.18535,107.07779 -1.677,23.392 -17.66296,43.34874 -16.95696,71.06874 1.059,41.399 73.54761,75.91147 28.61461,84.73847 z"
     style="fill:#ffccaa" /><path
     style="fill:#241c1c"
     d="m 442.11879,215.48713 c -11.583,-7.025 -24.313,-11.955 -37.606,-14.565 -13.291,-0.879 -26.608,1.295 -38.93,6.356 -4.149,1.323 -8.21,2.648 -12.182,3.707 -3.03,0.859 -6.288,0.034 -8.544,-2.163 -2.256,-2.198 -3.166,-5.433 -2.386,-8.485 0.78,-3.051 3.13,-5.454 6.164,-6.3 3.796,-1.059 7.68,-2.295 11.564,-3.531 14.927,-6.073 31.088,-8.494 47.139,-7.061 11.731,2.084 23.074,5.954 33.633,11.475 1.044,6.802 1.428,13.69 1.148,20.567 z"
     id="path18"
     inkscape:connector-curvature="0" /><g
     id="g42"
     transform="translate(-72.631329,13.296707)" /><g
     id="g44"
     transform="translate(-72.631329,13.296707)" /><g
     id="g46"
     transform="translate(-72.631329,13.296707)" /><g
     id="g48"
     transform="translate(-72.631329,13.296707)" /><g
     id="g50"
     transform="translate(-72.631329,13.296707)" /><g
     id="g52"
     transform="translate(-72.631329,13.296707)" /><g
     id="g54"
     transform="translate(-72.631329,13.296707)" /><g
     id="g56"
     transform="translate(-72.631329,13.296707)" /><g
     id="g58"
     transform="translate(-72.631329,13.296707)" /><g
     id="g60"
     transform="translate(-72.631329,13.296707)" /><g
     id="g62"
     transform="translate(-72.631329,13.296707)" /><g
     id="g64"
     transform="translate(-72.631329,13.296707)" /><g
     id="g66"
     transform="translate(-72.631329,13.296707)" /><g
     id="g68"
     transform="translate(-72.631329,13.296707)" /><g
     id="g70"
     transform="translate(-72.631329,13.296707)" /><path
     style="fill:#bdccd1;fill-opacity:1"
     d="m 33.572777,363.4971 c 4.753,-0.129 9.35501,1.677 12.75101,5.006 3.396,3.329 6.293,5.894 6.258,10.649 0,6.62076 0.39775,11.12228 1.27574,14.1504 0.878,3.02812 2.23624,4.58282 4.15724,5.30993 1.92099,0.72711 4.40474,0.62663 7.53374,0.34437 3.12899,-0.28226 10.40324,-1.7463 14.90524,-1.7463 0,0 -1.58575,1.14079 -3.82368,2.98852 -2.23794,1.84773 -5.12806,4.4024 -7.7368,7.23017 -2.60875,2.82776 -4.93612,5.92862 -6.04855,8.86872 -1.11243,2.94011 -1.00993,5.71946 1.24107,7.90421 9.00399,8.828 14.50799,1 14.50799,18.655 0,17.655 0.996,26.31 28.008003,35.138 15.625,5.119 48.52701,7.41 87.01501,-6.096 l 0.353,0.971 c 10.109,15.291 16.127,32.92 17.478,51.2 h 35.311 l -0.25,-502.047023 c -2.73589,-0.60602 -5.59565,-0.93511 -8.63584,-0.93668 -3.04019,-0.002 -6.26082,0.32439 -9.54171,0.85172 -3.28088,0.52734 -6.66621,1.30024 -10.12418,2.28093 -3.45796,0.98069 -6.98857,2.16917 -10.56001,3.52767 -14.28576,5.434 -28.97487,12.46328 -42.53184,20.92037 -13.55697,8.45708 -25.7318,17.21697 -34.48901,23.86217 -8.75721,6.64521 -14.0968,11.17572 -13.98328,11.17407 1.324,-0.088 -42.640143,16.907753 -41.227143,16.731753 v 0.177 c -19.78105,31.40328 -33.69765,71.72352 -30.18535,107.07779 1.677,23.392 17.66296,43.34874 16.95696,71.06874 -1.059,41.399 -73.54761,75.91147 -28.61461,84.73847 z"
     id="path50"
     inkscape:connector-curvature="0"
     sodipodi:nodetypes="cscssscssscsccccccsssssscccccc"
     inkscape:label="#path50" /><path
     style="fill:#006680;stroke-width:1.011204"
     d="M 246.75879,18.898127 V 184.5051 c 0,-17.44131 -9.18934,-32.82716 -36.60088,-41.5483 -21.88534,-5.6399 -35.21377,-10.79933 -57.87644,-11.3002 -4.75093,-0.26179 -9.5029,-0.78439 -14.34492,-1.39491 -1.64575,-0.17485 -3.19834,-0.43665 -4.84305,-0.69844 C 110.68441,126.67168 90.167417,116.0271 75.437457,99.651727 l -0.63967,-0.43566 C 105.10439,62.953357 147.0689,37.211747 194.2201,25.962577 c 3.47159,-0.8733 6.94422,-1.65769 10.41582,-2.35416 1.00505,-0.26179 2.10118,-0.43566 3.10622,-0.61151 4.75093,-0.95925 9.5029,-1.74462 14.34492,-2.35416 0.27429,0 0.63967,-0.0869 0.91396,-0.0869 7.87578,-1.02939 15.81057,-1.58261 23.75777,-1.65769 z"
     id="path6"
     inkscape:connector-curvature="0"
     sodipodi:nodetypes="ccccccccccccccc" /><path
     inkscape:connector-curvature="0"
     id="path5041"
     d="m 454.02107,111.65888 c -0.883,4.501 -15.95812,7.53496 -28.14012,6.91796 -1.324,-0.088 1.413,0.176 0,0 -0.561,0.015 -9.60628,13.42003 -10.16228,13.34703 -20.083,-2.207 -40.70659,1.16812 -60.34528,7.47225 -19.6387,6.30412 -38.29251,15.53724 -54.43594,25.04624 -16.14343,9.509 -29.77648,19.29387 -39.37368,26.7015 -9.5972,7.40762 -15.15854,12.438 -15.15854,12.438 l 0.35356,-184.683733 h 65.94199 c 27.958,-0.078 55.142,9.18 77.241,26.306 12.447,9.7105 27.67233,18.17043 37.57046,28.27819 4.94906,5.05387 9.04571,10.13619 11.75617,14.68334 2.71045,4.54716 15.34841,20.579973 14.75266,23.493223 z"
     style="fill:#241c1c"
     sodipodi:nodetypes="ccccsssccccssc" /><g
     transform="matrix(0.56864822,0,0,0.56864822,191.72965,29.765317)"
     id="g4785"
     style="fill:#b3b3b3"><g
       id="g4783"
       style="fill:#b3b3b3"><path
         id="path4781"
         d="m 98.389,6.226 c -1.884,0 -3.413,1.529 -3.413,3.413 v 169.047 c 0,1.884 1.529,3.413 3.413,3.413 1.884,0 3.413,-1.527 3.413,-3.412 V 9.639 c 0,-1.884 -1.529,-3.413 -3.413,-3.413 z"
         inkscape:connector-curvature="0"
         style="fill:#b3b3b3" /></g></g><g
     id="g5330"
     style="fill:#b3b3b3"
     transform="matrix(1.1660424,0,0,1.1660424,-213.24661,-643.99147)"><g
       transform="matrix(0.48767371,0,0,0.48767371,347.30834,577.815)"
       id="g4755"
       style="fill:#b3b3b3"><g
         id="g4753"
         style="fill:#b3b3b3"><path
           id="path4751"
           d="M 187.627,86.562 C 186.603,78.361 183.176,71.83 181.737,69.381 182.778,52.318 179.395,39.47 171.678,31.181 165.662,24.72 158.634,22.892 155.065,22.376 149.622,10.87 140.369,8.644 134.745,9.185 124.215,-0.622 114.475,-0.855 108.056,0.746 103.823,1.804 100.509,3.787 98.453,5.282 96.398,3.785 93.082,1.804 88.85,0.746 82.431,-0.858 72.691,-0.624 62.161,9.185 56.531,8.642 47.282,10.87 41.841,22.376 c -3.569,0.515 -10.597,2.343 -16.613,8.805 -7.719,8.289 -11.1,21.137 -10.059,38.2 -1.439,2.447 -4.864,8.98 -5.89,17.181 -1.159,9.293 0.611,22.398 15.141,33.031 -1.684,9.94 -0.09,27.051 15.785,35.465 -0.659,3.616 -1.096,9.888 2.132,15.249 2.538,4.217 6.731,6.991 12.477,8.259 2.901,4.477 12.901,18.343 25.38,18.343 0.079,0 0.16,0 0.239,-0.002 6.69,-0.096 12.735,-4.05 18.019,-11.771 5.286,7.719 11.331,11.675 18.019,11.771 12.571,0.184 22.7,-13.836 25.62,-18.341 5.746,-1.268 9.94,-4.041 12.477,-8.259 3.229,-5.361 2.79,-11.634 2.132,-15.249 15.877,-8.414 17.471,-25.525 15.787,-35.465 14.531,-10.633 16.302,-23.737 15.14,-33.031 z m -20.833,28.684 c -1.2,0.8 -1.768,2.268 -1.418,3.668 0.232,0.928 5.451,22.794 -13.981,31.121 -1.633,0.7 -2.456,2.533 -1.894,4.217 0.024,0.073 2.325,7.38 -0.782,12.537 -1.684,2.799 -4.815,4.598 -9.3,5.345 -1,0.166 -1.874,0.77 -2.386,1.644 -2.669,4.555 -11.494,16.305 -20.325,16.305 -0.049,0 -0.101,0 -0.152,0 -5.311,-0.082 -10.373,-4.465 -15.044,-13.027 -0.599,-1.096 -1.877,-1.778 -3.127,-1.778 -1.25,0 -2.398,0.681 -2.997,1.778 -4.669,8.562 -9.731,12.945 -15.044,13.027 -8.841,0.142 -17.792,-11.723 -20.477,-16.305 -0.512,-0.874 -1.388,-1.478 -2.386,-1.644 -4.471,-0.746 -7.595,-2.536 -9.283,-5.318 -3.145,-5.185 -0.818,-12.501 -0.797,-12.565 0.56,-1.684 -0.261,-3.517 -1.894,-4.217 -19.33,-8.284 -14.205,-30.199 -13.979,-31.121 0.35,-1.399 -0.218,-2.867 -1.418,-3.668 -25.464,-16.976 -9.318,-42.057 -8.622,-43.11 0.42,-0.63 0.618,-1.382 0.565,-2.137 -1.113,-15.563 1.603,-27.02 8.071,-34.057 6.219,-6.765 13.746,-6.939 14.041,-6.943 1.396,0 2.65,-0.85 3.169,-2.145 3.82,-9.547 9.958,-10.911 13.15,-10.911 1.027,0 1.751,0.142 1.99,0.198 1.164,0.29 2.393,-0.049 3.241,-0.898 6.946,-6.943 14.085,-9.61 21.22,-7.934 5.46,1.283 9.015,4.722 9.039,4.746 0.64,0.64 1.509,1 2.413,1 h 0.13 c 0.905,0 1.773,-0.36 2.413,-1 0.034,-0.034 3.468,-3.357 8.781,-4.685 7.219,-1.804 14.447,0.841 21.478,7.873 0.829,0.831 2.058,1.166 3.209,0.906 1.019,-0.234 10.122,-1.918 15.172,10.706 0.512,1.28 1.768,2.128 3.147,2.145 0.317,0.005 7.844,0.177 14.063,6.943 6.467,7.037 9.182,18.495 8.071,34.057 -0.053,0.754 0.145,1.507 0.565,2.137 0.044,0.065 4.35,6.607 5.434,15.275 1.413,11.309 -3.316,20.675 -14.056,27.835 z"
           inkscape:connector-curvature="0"
           style="fill:#b3b3b3" /></g></g></g><g
     style="fill:#b3b3b3"
     id="g4761"
     transform="matrix(0.56864822,0,0,0.56864822,178.72965,39.265317)"><g
       style="fill:#b3b3b3"
       id="g4759"><path
         style="fill:#b3b3b3"
         inkscape:connector-curvature="0"
         d="m 155.851,24.507 c -0.597,-1.789 -2.534,-2.753 -4.318,-2.159 -21.227,7.076 -21.472,24.815 -21.472,25.566 0,1.876 1.514,3.389 3.389,3.401 0.009,0 0.017,0 0.024,0 1.865,0 3.388,-1.512 3.413,-3.378 0.009,-0.555 0.377,-13.638 16.804,-19.113 1.789,-0.596 2.755,-2.528 2.16,-4.317 z"
         id="path4757" /></g></g><g
     style="fill:#b3b3b3"
     id="g4767"
     transform="matrix(0.56864822,0,0,0.56864822,191.72965,29.765317)"><g
       style="fill:#b3b3b3"
       id="g4765"><path
         style="fill:#b3b3b3"
         inkscape:connector-curvature="0"
         d="m 171.272,116.014 c -1.143,-1.498 -3.282,-1.789 -4.784,-0.645 -5.562,4.238 -10.592,5.748 -14.94,4.495 -7.747,-2.231 -11.65,-12.435 -11.687,-12.539 -0.655,-1.765 -2.62,-2.668 -4.381,-2.012 -1.768,0.652 -2.673,2.616 -2.019,4.384 0.203,0.55 5.1,13.5 16.157,16.715 1.649,0.48 3.33,0.719 5.04,0.719 5.089,0 10.441,-2.118 15.969,-6.333 1.499,-1.142 1.787,-3.286 0.645,-4.784 z"
         id="path4763" /></g></g><g
     style="fill:#b3b3b3"
     id="g4773"
     transform="matrix(0.56864822,0,0,0.56864822,191.72965,29.765317)"><g
       style="fill:#b3b3b3"
       id="g4771"><path
         style="fill:#b3b3b3"
         inkscape:connector-curvature="0"
         d="m 113.561,118.861 c -1.331,-1.333 -3.495,-1.333 -4.826,0 -1.333,1.333 -1.333,3.494 0,4.826 11.083,11.083 8.784,21.791 8.666,22.298 -0.444,1.823 0.667,3.662 2.488,4.118 0.276,0.068 0.555,0.102 0.829,0.102 1.529,0 2.922,-1.036 3.309,-2.587 0.151,-0.597 3.498,-14.793 -10.466,-28.757 z"
         id="path4769" /></g></g><g
     style="fill:#b3b3b3"
     id="g4797"
     transform="matrix(0.56864822,0,0,0.56864822,191.72965,29.765317)"><g
       style="fill:#b3b3b3"
       id="g4795"><path
         style="fill:#b3b3b3"
         inkscape:connector-curvature="0"
         d="m 130.285,140.187 c -15.046,0 -22.084,20.594 -22.376,21.472 -0.596,1.787 0.369,3.715 2.156,4.314 0.358,0.121 0.724,0.177 1.082,0.177 1.427,0 2.758,-0.901 3.238,-2.33 1.572,-4.675 7.494,-16.807 15.901,-16.807 1.884,0 3.413,-1.529 3.413,-3.413 0,-1.884 -1.53,-3.413 -3.414,-3.413 z"
         id="path4793" /></g></g><g
     style="fill:#b3b3b3"
     id="g4803"
     transform="matrix(0.56864822,0,0,0.56864822,191.72965,29.765317)"><g
       style="fill:#b3b3b3"
       id="g4801"><path
         style="fill:#b3b3b3"
         inkscape:connector-curvature="0"
         d="m 134.13,8.654 c -1.509,-1.125 -3.649,-0.812 -4.775,0.701 l -8.189,11.003 c -1.125,1.51 -0.811,3.649 0.701,4.775 0.611,0.457 1.324,0.676 2.034,0.676 1.043,0 2.072,-0.474 2.741,-1.377 l 8.189,-11.003 c 1.125,-1.51 0.811,-3.648 -0.701,-4.775 z"
         id="path4799" /></g></g><g
     style="fill:#b3b3b3"
     id="g4809"
     transform="matrix(0.56864822,0,0,0.56864822,193.72965,33.765317)"><g
       style="fill:#b3b3b3"
       id="g4807"><path
         style="fill:#b3b3b3"
         inkscape:connector-curvature="0"
         d="m 64.251,30.715 c -7.528,0 -13.653,6.125 -13.653,13.653 0,7.528 6.125,13.653 13.653,13.653 7.528,0 13.653,-6.125 13.653,-13.653 0,-7.528 -6.125,-13.653 -13.653,-13.653 z m 0,20.48 c -3.765,0 -6.827,-3.062 -6.827,-6.827 0,-3.765 3.062,-6.827 6.827,-6.827 3.765,0 6.827,3.062 6.827,6.827 -0.001,3.765 -3.063,6.827 -6.827,6.827 z"
         id="path4805" /></g></g><g
     style="fill:#b3b3b3"
     id="g4815"
     transform="matrix(0.56864822,0,0,0.56864822,193.55287,33.189937)"><g
       style="fill:#b3b3b3"
       id="g4813"><path
         style="fill:#b3b3b3"
         inkscape:connector-curvature="0"
         d="m 40.357,75.088 c -7.528,0 -13.653,6.125 -13.653,13.653 0,7.528 6.125,13.653 13.653,13.653 7.528,0 13.653,-6.125 13.653,-13.653 0.001,-7.528 -6.125,-13.653 -13.653,-13.653 z m 0,20.48 c -3.765,0 -6.827,-3.062 -6.827,-6.827 0,-3.765 3.062,-6.827 6.827,-6.827 3.765,0 6.827,3.062 6.827,6.827 0,3.765 -3.062,6.827 -6.827,6.827 z"
         id="path4811" /></g></g><g
     style="fill:#b3b3b3"
     id="g4821"
     transform="matrix(0.56864822,0,0,0.56864822,193.72965,33.765317)"><g
       style="fill:#b3b3b3"
       id="g4819"><path
         style="fill:#b3b3b3"
         inkscape:connector-curvature="0"
         d="m 74.491,105.808 c -7.528,0 -13.653,6.125 -13.653,13.653 0,7.528 6.125,13.653 13.653,13.653 7.528,0 13.653,-6.125 13.653,-13.653 0,-7.528 -6.125,-13.653 -13.653,-13.653 z m 0,20.48 c -3.765,0 -6.827,-3.062 -6.827,-6.827 0,-3.765 3.062,-6.827 6.827,-6.827 3.765,0 6.827,3.062 6.827,6.827 0,3.765 -3.063,6.827 -6.827,6.827 z"
         id="path4817" /></g></g><g
     style="fill:#b3b3b3"
     id="g4833"
     transform="matrix(0.56864822,0,0,0.56864822,193.72965,33.765317)"><g
       style="fill:#b3b3b3"
       id="g4831"><path
         style="fill:#b3b3b3"
         inkscape:connector-curvature="0"
         d="m 64.251,51.195 c -1.884,0 -3.413,1.529 -3.413,3.413 v 34.133 c 0,1.884 1.529,3.413 3.413,3.413 1.886,0 3.413,-1.527 3.413,-3.413 V 54.608 c 0,-1.884 -1.529,-3.413 -3.413,-3.413 z"
         id="path4829" /></g></g><g
     style="fill:#b3b3b3"
     id="g4839"
     transform="matrix(0.56864822,0,0,0.56864822,193.72965,33.765317)"><g
       style="fill:#b3b3b3"
       id="g4837"><path
         style="fill:#b3b3b3"
         inkscape:connector-curvature="0"
         d="M 74.491,85.328 H 50.597 c -1.884,0 -3.413,1.529 -3.413,3.413 0,1.884 1.529,3.413 3.413,3.413 H 74.49 c 1.886,0 3.413,-1.529 3.413,-3.413 10e-4,-1.884 -1.528,-3.413 -3.412,-3.413 z"
         id="path4835" /></g></g><g
     style="fill:#b3b3b3"
     id="g4845"
     transform="matrix(0.56864822,0,0,0.56864822,193.72965,25.765317)"><g
       style="fill:#b3b3b3"
       id="g4843"><path
         style="fill:#b3b3b3"
         inkscape:connector-curvature="0"
         d="m 74.491,99.396452 c -1.884,0 -3.413,1.528998 -3.413,3.412998 v 20.47999 c 0,1.884 1.529,3.413 3.413,3.413 1.886,0 3.413,-1.527 3.413,-3.413 v -20.47999 c 0,-1.884 -1.529,-3.412998 -3.413,-3.412998 z"
         id="path4841" /></g></g><g
     style="fill:#ff5555"
     id="g4853"
     transform="matrix(0.48767371,0,0,0.48767371,198.74481,204.04965)" /><g
     style="fill:#ff5555"
     id="g4855"
     transform="matrix(0.48767371,0,0,0.48767371,198.74481,204.04965)" /><g
     style="fill:#ff5555"
     id="g4857"
     transform="matrix(0.48767371,0,0,0.48767371,198.74481,204.04965)" /><g
     style="fill:#ff5555"
     id="g4859"
     transform="matrix(0.48767371,0,0,0.48767371,198.74481,204.04965)" /><g
     style="fill:#ff5555"
     id="g4861"
     transform="matrix(0.48767371,0,0,0.48767371,198.74481,204.04965)" /><g
     style="fill:#ff5555"
     id="g4863"
     transform="matrix(0.48767371,0,0,0.48767371,198.74481,204.04965)" /><g
     style="fill:#ff5555"
     id="g4865"
     transform="matrix(0.48767371,0,0,0.48767371,198.74481,204.04965)" /><g
     style="fill:#ff5555"
     id="g4867"
     transform="matrix(0.48767371,0,0,0.48767371,198.74481,204.04965)" /><g
     style="fill:#ff5555"
     id="g4869"
     transform="matrix(0.48767371,0,0,0.48767371,198.74481,204.04965)" /><g
     style="fill:#ff5555"
     id="g4871"
     transform="matrix(0.48767371,0,0,0.48767371,198.74481,204.04965)" /><g
     style="fill:#ff5555"
     id="g4873"
     transform="matrix(0.48767371,0,0,0.48767371,198.74481,204.04965)" /><g
     style="fill:#ff5555"
     id="g4875"
     transform="matrix(0.48767371,0,0,0.48767371,198.74481,204.04965)" /><g
     style="fill:#ff5555"
     id="g4877"
     transform="matrix(0.48767371,0,0,0.48767371,198.74481,204.04965)" /><g
     style="fill:#ff5555"
     id="g4879"
     transform="matrix(0.48767371,0,0,0.48767371,198.74481,204.04965)" /><g
     style="fill:#ff5555"
     id="g4881"
     transform="matrix(0.48767371,0,0,0.48767371,198.74481,204.04965)" /><path
     style="fill:#d5f6ff"
     d="m 82.851757,162.53681 c -2.348,0.022 -4.606,-0.901 -6.268,-2.56 -0.78,-0.859 -1.408,-1.844 -1.858,-2.914 -0.937,-2.137 -0.937,-4.569 0,-6.707 0.448,-1.071 1.076,-2.056 1.858,-2.915 2.119,-2.072 5.123,-2.965 8.03,-2.388 0.54,0.11 1.071,0.257 1.59,0.44 0.529,0.243 1.032,0.541 1.5,0.888 0.507,0.304 0.98,0.66 1.415,1.06 0.797,0.845 1.426,1.834 1.854,2.914 0.943,2.136 0.943,4.571 0,6.707 -0.45,1.068 -1.077,2.053 -1.854,2.914 -0.859,0.779 -1.844,1.406 -2.914,1.854 -1.047,0.493 -2.196,0.735 -3.353,0.707 z"
     id="path24"
     inkscape:connector-curvature="0" /><path
     style="fill:#d5f6ff"
     d="m 206.43776,189.01981 c -2.348,0.023 -4.607,-0.9 -6.267,-2.56 -1.66,-1.66 -2.583,-3.919 -2.56,-6.267 -0.03,-1.157 0.211,-2.305 0.703,-3.353 0.427,-1.081 1.058,-2.07 1.857,-2.914 0.419,-0.38 0.861,-0.735 1.323,-1.06 0.49,-0.335 1.024,-0.602 1.586,-0.793 0.501,-0.255 1.037,-0.435 1.59,-0.535 1.721,-0.36 3.511,-0.173 5.121,0.535 2.217,0.804 3.963,2.55 4.767,4.767 1.163,2.714 0.876,5.832 -0.762,8.29 -1.638,2.455 -4.405,3.919 -7.358,3.89 z"
     id="path26"
     inkscape:connector-curvature="0" /><path
     style="fill:#d5f6ff"
     d="m 204.59013,423.33599 c -1.155,-0.014 -2.296,-0.254 -3.358,-0.707 -2.215,-0.807 -3.96,-2.552 -4.767,-4.767 -0.492,-1.048 -0.732,-2.196 -0.703,-3.354 0.033,-2.337 0.947,-4.576 2.56,-6.268 0.857,-0.779 1.841,-1.406 2.909,-1.854 2.149,-0.888 4.562,-0.888 6.711,0 1.07,0.448 2.055,1.074 2.914,1.854 1.612,1.693 2.526,3.931 2.561,6.268 0.03,1.158 -0.212,2.306 -0.707,3.353 -0.45,1.068 -1.077,2.053 -1.854,2.914 -0.859,0.779 -1.844,1.406 -2.914,1.854 -1.059,0.453 -2.199,0.693 -3.352,0.707 z"
     id="path28"
     inkscape:connector-curvature="0" /><path
     style="fill:#d5f6ff"
     d="m 109.33376,471.50182 c -1.155,-0.014 -2.296,-0.254 -3.358,-0.707 -2.215,-0.807 -3.96,-2.552 -4.767,-4.767 -0.937,-2.137 -0.937,-4.569 0,-6.707 0.427,-1.081 1.057,-2.071 1.857,-2.915 2.063,-2.143 5.078,-3.084 7.994,-2.493 2.916,0.591 5.327,2.63 6.394,5.407 0.943,2.136 0.943,4.571 0,6.707 -0.45,1.068 -1.077,2.053 -1.854,2.914 -0.859,0.779 -1.844,1.406 -2.914,1.854 -1.059,0.453 -2.199,0.693 -3.352,0.707 z"
     id="path30"
     inkscape:connector-curvature="0" /><circle
     style="opacity:1;fill:#ff0000;fill-opacity:1;stroke:none;stroke-width:3.75;stroke-miterlimit:4;stroke-dasharray:none;stroke-opacity:0.55"
     id="path4580"
     cx="93.523865"
     cy="251.65823"
     r="23.334522" /><circle
     style="opacity:1;fill:#00aad4;fill-opacity:1;stroke:none;stroke-width:3.75;stroke-miterlimit:4;stroke-dasharray:none;stroke-opacity:0.55"
     id="path4580-3"
     cx="401.56561"
     cy="251.65829"
     r="23.334522" /><g
     id="g4754"
     transform="matrix(-1,0,0,1,684.3126,-412.26535)"><g
       style="fill:#b3b3b3"
       id="g4746"
       transform="matrix(0.56864822,0,0,0.56864822,340.29318,403.53067)"><g
         style="fill:#b3b3b3"
         id="g4744"><path
           style="fill:#b3b3b3"
           inkscape:connector-curvature="0"
           d="m 113.561,118.861 c -1.331,-1.333 -3.495,-1.333 -4.826,0 -1.333,1.333 -1.333,3.494 0,4.826 11.083,11.083 8.784,21.791 8.666,22.298 -0.444,1.823 0.667,3.662 2.488,4.118 0.276,0.068 0.555,0.102 0.829,0.102 1.529,0 2.922,-1.036 3.309,-2.587 0.151,-0.597 3.498,-14.793 -10.466,-28.757 z"
           id="path4742" /></g></g><g
       style="fill:#b3b3b3"
       id="g4752"
       transform="matrix(0.56864822,0,0,0.56864822,340.29318,403.53067)"><g
         style="fill:#b3b3b3"
         id="g4750"><path
           style="fill:#b3b3b3"
           inkscape:connector-curvature="0"
           d="m 130.285,140.187 c -15.046,0 -22.084,20.594 -22.376,21.472 -0.596,1.787 0.369,3.715 2.156,4.314 0.358,0.121 0.724,0.177 1.082,0.177 1.427,0 2.758,-0.901 3.238,-2.33 1.572,-4.675 7.494,-16.807 15.901,-16.807 1.884,0 3.413,-1.529 3.413,-3.413 0,-1.884 -1.53,-3.413 -3.414,-3.413 z"
           id="path4748" /></g></g></g><g
     id="g5515"
     transform="translate(-142.19957,-370.93692)"
     style="fill:#00222b"><g
       style="fill:#00222b"
       transform="matrix(0.22889859,0,0,0.22889859,316.26682,588.19548)"
       id="dd"><path
         style="fill:#00222b"
         inkscape:connector-curvature="0"
         d="m 261.05469,570.73047 c -13.38672,0 -25.96875,-5.21094 -35.42969,-14.67188 l -31.54297,-31.54297 -0.5625,0.55469 32.09375,32.09375 c 9.21484,9.21094 21.46094,14.28906 34.48828,14.28906 8.61719,0 16.88281,-2.23828 24.16797,-6.40625 -7.07812,3.71094 -14.99219,5.6836 -23.21484,5.6836 z m 0,0"
         id="path5459" /><path
         style="fill:#00222b"
         inkscape:connector-curvature="0"
         d="M 84.28125,414.71094 C 78.589844,409.02344 74.449219,402.19531 72.039062,394.75 74.261719,402.73437 78.5,410.05078 84.519531,416.07422 l 30.742189,30.74219 0.5625,-0.5625 z m 0,0"
         id="path5461" /><path
         style="fill:#00222b"
         inkscape:connector-curvature="0"
         d="M 58.050781,504.01953 88.746094,473.32812 167,551.58594 l -30.69141,30.6914 z m 0,0"
         id="path5463" /><path
         style="fill:#00222b"
         inkscape:connector-curvature="0"
         d="m 225.625,556.05078 c 9.46094,9.46875 22.04297,14.67969 35.42969,14.67969 8.22265,0 16.13672,-1.97266 23.21484,-5.68359 3.72656,-2.13282 7.19141,-4.76563 10.3125,-7.88282 9.21484,-9.21093 14.28906,-21.45703 14.28906,-34.48437 0,-13.02735 -5.07422,-25.27344 -14.28906,-34.48438 L 153.48828,347.10156 c -9.20703,-9.20703 -21.45312,-14.28125 -34.48047,-14.28125 -13.02734,0 -25.273435,5.07422 -34.480466,14.28125 -9.214844,9.21485 -14.289063,21.46094 -14.289063,34.48828 0,4.51172 0.621094,8.92579 1.800781,13.16016 2.410157,7.44531 6.550782,14.27344 12.242188,19.96094 z m 0,0"
         id="path5465" /><path
         style="fill:#00222b"
         inkscape:connector-curvature="0"
         d="M 495.46094,29.933594 192.40625,332.98828 237.29297,377.875 390.63672,224.53125 417.15625,251.05078 263.8125,404.39453 307.35156,447.92969 610.40625,144.875 640,0.332031 Z m 0,0"
         id="path5467" /><path
         style="fill:#00222b"
         inkscape:connector-curvature="0"
         d="m 0,562.07422 31.53125,-31.53516 78.25781,78.25781 -31.531248,31.53125 z m 0,0"
         id="path5469" /></g><g
       style="fill:#00222b"
       id="d"
       transform="matrix(-0.22889859,0,0,0.22889859,462.76192,588.19548)"><path
         style="fill:#00222b"
         id="path5487"
         d="m 261.05469,570.73047 c -13.38672,0 -25.96875,-5.21094 -35.42969,-14.67188 l -31.54297,-31.54297 -0.5625,0.55469 32.09375,32.09375 c 9.21484,9.21094 21.46094,14.28906 34.48828,14.28906 8.61719,0 16.88281,-2.23828 24.16797,-6.40625 -7.07812,3.71094 -14.99219,5.6836 -23.21484,5.6836 z m 0,0"
         inkscape:connector-curvature="0" /><path
         style="fill:#00222b"
         id="path5489"
         d="M 84.28125,414.71094 C 78.589844,409.02344 74.449219,402.19531 72.039062,394.75 74.261719,402.73437 78.5,410.05078 84.519531,416.07422 l 30.742189,30.74219 0.5625,-0.5625 z m 0,0"
         inkscape:connector-curvature="0" /><path
         style="fill:#00222b"
         id="path5491"
         d="M 58.050781,504.01953 88.746094,473.32812 167,551.58594 l -30.69141,30.6914 z m 0,0"
         inkscape:connector-curvature="0" /><path
         style="fill:#00222b"
         id="path5493"
         d="m 225.625,556.05078 c 9.46094,9.46875 22.04297,14.67969 35.42969,14.67969 8.22265,0 16.13672,-1.97266 23.21484,-5.68359 3.72656,-2.13282 7.19141,-4.76563 10.3125,-7.88282 9.21484,-9.21093 14.28906,-21.45703 14.28906,-34.48437 0,-13.02735 -5.07422,-25.27344 -14.28906,-34.48438 L 153.48828,347.10156 c -9.20703,-9.20703 -21.45312,-14.28125 -34.48047,-14.28125 -13.02734,0 -25.273435,5.07422 -34.480466,14.28125 -9.214844,9.21485 -14.289063,21.46094 -14.289063,34.48828 0,4.51172 0.621094,8.92579 1.800781,13.16016 2.410157,7.44531 6.550782,14.27344 12.242188,19.96094 z m 0,0"
         inkscape:connector-curvature="0" /><path
         style="fill:#00222b"
         id="path5495"
         d="M 495.46094,29.933594 192.40625,332.98828 237.29297,377.875 390.63672,224.53125 417.15625,251.05078 263.8125,404.39453 307.35156,447.92969 610.40625,144.875 640,0.332031 Z m 0,0"
         inkscape:connector-curvature="0" /><path
         style="fill:#00222b"
         id="path5497"
         d="m 0,562.07422 31.53125,-31.53516 78.25781,78.25781 -31.531248,31.53125 z m 0,0"
         inkscape:connector-curvature="0" /></g></g></svg>